<svg width="25.000000" height="25.000000" viewBox="0 0 25 25" fill="none" xmlns="http://www.w3.org/2000/svg" xmlns:xlink="http://www.w3.org/1999/xlink">
	<desc>
			Created with Pixso.
	</desc>
	<defs>
		<clipPath id="clip4_15">
			<rect id="placeholder" width="25.000000" height="25.000000" fill="white" fill-opacity="0"/>
		</clipPath>
	</defs>
	<rect id="placeholder" width="25.000000" height="25.000000" fill="#FFFFFF" fill-opacity="0"/>
	<g clip-path="url(#clip4_15)">
		<path id="Vector" d="M12.4826 0C7.43045 0 3.32031 4.11011 3.32031 9.16235C3.32031 11.4832 4.78268 14.7622 7.66696 18.9087C9.77516 21.9397 11.8486 24.2852 11.936 24.3835L12.4826 25L13.0295 24.3835C13.1166 24.2852 15.1901 21.9397 17.2985 18.9087C20.1826 14.7622 21.6452 11.4832 21.6452 9.16235C21.6452 4.11011 17.5348 0 12.4826 0ZM16.1066 18.0623C14.6816 20.1123 13.2414 21.8765 12.4826 22.7766C11.7258 21.8789 10.2909 20.1213 8.86688 18.074C6.19449 14.2322 4.78192 11.1506 4.78192 9.16235C4.78192 4.91626 8.23651 1.46167 12.4826 1.46167C16.729 1.46167 20.1834 4.91626 20.1834 9.16235C20.1834 11.1484 18.7737 14.2261 16.1066 18.0623Z" fill="#C8A35F" fill-opacity="1.000000" fill-rule="nonzero"/>
		<path id="Vector" d="M12.4827 3.38623C9.5009 3.38623 7.07513 5.81201 7.07513 8.7937C7.07513 11.7754 9.5009 14.2014 12.4827 14.2014C15.4646 14.2014 17.8904 11.7754 17.8904 8.7937C17.8904 5.81201 15.4646 3.38623 12.4827 3.38623ZM12.4827 12.7397C10.3069 12.7397 8.53674 10.9697 8.53674 8.7937C8.53674 6.61816 10.3069 4.8479 12.4827 4.8479C14.6586 4.8479 16.4288 6.61816 16.4288 8.7937C16.4288 10.9697 14.6586 12.7397 12.4827 12.7397Z" fill="#C8A35F" fill-opacity="1.000000" fill-rule="nonzero"/>
	</g>
</svg>
