<svg width="160.000000" height="46.000000" viewBox="0 0 160 46" fill="none" xmlns="http://www.w3.org/2000/svg" xmlns:xlink="http://www.w3.org/1999/xlink">
	<desc>
			Created with Pixso.
	</desc>
	<defs>
		<clipPath id="clip8_135">
			<rect id="Frame" width="39.019436" height="46.000000" fill="white" fill-opacity="0"/>
		</clipPath>
		<clipPath id="clip8_140">
			<rect id="Frame" width="110.000000" height="21.643520" transform="translate(50.000000 12.000000)" fill="white" fill-opacity="0"/>
		</clipPath>
	</defs>
	<rect id="Frame" width="39.019436" height="46.000000" fill="#FFFFFF" fill-opacity="0"/>
	<g clip-path="url(#clip8_135)">
		<path id="Vector" d="M36.7229 33.864C36.1088 34.9448 35.3842 35.9616 34.559 36.8975L34.5811 36.9196L33.8147 37.6884C30.403 41.1197 25.8615 43.011 21.0252 43.011C16.2086 43.011 11.6793 41.1344 8.27252 37.7277C4.86575 34.3209 2.98923 29.7916 2.98923 24.975C2.98923 24.6188 2.99902 24.2578 3.02115 23.8992C3.02359 23.85 3.02606 23.8009 3.03098 23.7493L3.03098 23.7346C3.03342 23.7026 3.03589 23.6683 3.03833 23.6364L3.03833 23.6191C3.04324 23.5455 3.05063 23.4693 3.05798 23.3956C3.0629 23.3342 3.06781 23.2704 3.0752 23.204C3.08499 23.1083 3.09482 23.01 3.10464 22.9142C3.11203 22.8577 3.11694 22.7938 3.12677 22.7324C3.1366 22.6539 3.14642 22.563 3.15869 22.4745C3.16605 22.4254 3.17343 22.3763 3.18079 22.3271C3.19061 22.2461 3.20535 22.1552 3.22009 22.0668C3.22748 22.0201 3.2373 21.9661 3.24466 21.9146C3.25201 21.8703 3.2594 21.8261 3.26923 21.7819C3.27905 21.7254 3.29132 21.6591 3.30362 21.5952C3.31345 21.5387 3.32571 21.4773 3.33798 21.4159C3.35272 21.3447 3.36502 21.2759 3.3822 21.2022C3.48538 20.711 3.6131 20.2173 3.758 19.7358L3.76291 19.7236C3.78012 19.6597 3.79977 19.5959 3.82187 19.5344C3.83905 19.4804 3.85626 19.4264 3.87344 19.3699C3.97662 19.0555 4.0896 18.7362 4.20996 18.4291C4.22714 18.3874 4.24435 18.3408 4.26154 18.2965C4.28119 18.2499 4.29837 18.2007 4.3205 18.1492C4.34503 18.0902 4.37207 18.0239 4.39908 17.9576C4.41873 17.9084 4.4433 17.8519 4.46786 17.7979L4.47769 17.7734C4.51205 17.6996 4.54401 17.6235 4.5784 17.5498C4.60294 17.4933 4.6275 17.4393 4.65454 17.3853C5.10892 16.4028 5.66159 15.4547 6.29282 14.5656L6.396 14.4255C6.46722 14.3273 6.53845 14.229 6.61212 14.1357C6.64651 14.0915 6.68335 14.0424 6.72021 13.9957C6.7988 13.8925 6.87985 13.7918 6.95847 13.6936C7.00513 13.6371 7.05179 13.5757 7.10092 13.5192C7.14514 13.4651 7.19424 13.4086 7.24338 13.3497C7.29004 13.2932 7.34161 13.2343 7.39075 13.1778C7.44724 13.1139 7.50372 13.0476 7.56024 12.9837L5.44296 10.864C1.93057 14.7277 0 19.7211 0 24.9725C0 30.5899 2.18604 35.8683 6.15775 39.84C10.1294 43.8117 15.4078 45.9977 21.0252 45.9977C26.6598 45.9977 31.9529 43.7969 35.9271 39.8032C37.0618 38.6635 38.0615 37.4009 38.904 36.0427L36.7229 33.864Z" fill="#1D2A38" fill-opacity="1.000000" fill-rule="nonzero"/>
		<path id="Vector" d="M9.81256 36.1875C12.8067 39.1816 16.7906 40.8322 21.0251 40.8322C21.1578 40.8322 21.2904 40.8297 21.4231 40.8273C21.4894 40.8273 21.5533 40.8248 21.6196 40.8223L21.6294 40.8223C21.7276 40.8174 21.8234 40.8125 21.9217 40.8076C22.0003 40.8027 22.0764 40.7978 22.155 40.7929C22.1943 40.7904 22.2287 40.788 22.2606 40.7855L22.3147 40.7806C22.3859 40.7757 22.4571 40.7683 22.5308 40.7609C22.5947 40.756 22.6536 40.7511 22.715 40.7438C22.7592 40.7388 22.7986 40.7339 22.8354 40.7314L22.9164 40.7216C22.968 40.7143 23.0196 40.7094 23.0736 40.702C23.2701 40.6774 23.4617 40.6504 23.6508 40.6185C23.7049 40.6086 23.7565 40.5988 23.808 40.5915L23.8253 40.589C23.867 40.5817 23.9088 40.5743 23.9481 40.5669L23.9677 40.562C24.0217 40.5522 24.0758 40.5424 24.1298 40.5301C24.2723 40.5031 24.4123 40.4736 24.5498 40.4417C24.6432 40.422 24.7365 40.3975 24.8298 40.3753L24.8421 40.3729C24.8667 40.368 24.8888 40.363 24.9134 40.3557C24.9821 40.3385 25.0435 40.3213 25.1074 40.3065C25.1614 40.2918 25.213 40.2795 25.2621 40.2648C25.3063 40.2525 25.3456 40.2427 25.3825 40.2304C25.4193 40.2206 25.4488 40.2132 25.4758 40.2034L25.4979 40.196C25.5372 40.1862 25.5765 40.1739 25.6158 40.1616C25.6821 40.142 25.7386 40.1248 25.7951 40.1052C25.8418 40.0904 25.8811 40.0781 25.9253 40.0659C26.058 40.0216 26.1906 39.9774 26.3208 39.9307C26.3576 39.9185 26.392 39.9062 26.4264 39.8939L26.4534 39.8841C26.5001 39.8669 26.5418 39.8522 26.5811 39.8374C26.6474 39.8129 26.7039 39.7908 26.7629 39.7686C26.812 39.749 26.8562 39.7343 26.898 39.717C26.979 39.6851 27.0527 39.6556 27.1264 39.6237L27.3474 39.5304C27.4162 39.5009 27.485 39.4714 27.5489 39.442C27.5882 39.4247 27.6201 39.41 27.6545 39.3953L27.6864 39.3806C27.7404 39.356 27.7945 39.329 27.8485 39.3044C28.1826 39.1448 28.5117 38.9753 28.8286 38.7935C28.8629 38.7739 28.8949 38.7542 28.9293 38.737C29.0029 38.6953 29.0766 38.6511 29.1479 38.6093L29.5114 38.3858C29.671 38.2827 29.838 38.1746 30.0174 38.0518C30.0665 38.0173 30.1156 37.983 30.1647 37.9486L30.1844 37.9338C30.2212 37.9068 30.2581 37.8823 30.2949 37.8552L30.3047 37.8479C30.3318 37.8282 30.3588 37.8086 30.3858 37.7889L30.3956 37.7816C30.4423 37.7496 30.4865 37.7153 30.5307 37.6808C30.5823 37.644 30.6314 37.6047 30.6781 37.5679C30.7125 37.5408 30.7395 37.5187 30.769 37.4966L30.8033 37.4696C30.8525 37.4303 30.9041 37.391 30.9532 37.3492C31.0048 37.3075 31.0563 37.2657 31.1055 37.2264L31.1177 37.2166C31.2135 37.1381 31.3069 37.0569 31.4026 36.9759C31.4321 36.9514 31.4592 36.9268 31.4886 36.8998L29.3689 34.7776C27.0478 36.7573 24.1028 37.8405 21.0325 37.8405C13.939 37.8405 8.16687 32.0684 8.16687 24.9749C8.16687 21.5165 9.52026 18.2719 11.974 15.8377C13.126 14.6956 14.5064 13.7696 15.9973 13.1334L13.7474 10.8835C12.313 11.6278 11.0038 12.5833 9.85184 13.7278C6.83069 16.7269 5.16785 20.7182 5.16785 24.9724C5.16785 29.2094 6.81842 33.1909 9.81256 36.1875Z" fill="#FFFFFF" fill-opacity="1.000000" fill-rule="nonzero"/>
		<path id="Vector" d="M39.0195 21.0252C39.0195 15.4078 36.8334 10.1295 32.8617 6.15771C28.89 2.18604 23.6092 0 17.9918 0C12.3572 0 7.06409 2.1983 3.09241 6.19458C1.95761 7.33179 0.957947 8.59674 0.113007 9.95502L2.29657 12.1386C2.91064 11.0579 3.63522 10.041 4.46051 9.10516L4.43842 9.08307L5.20474 8.31427C8.61395 4.88293 13.158 2.9917 17.9943 2.9917C22.8109 2.9917 27.3401 4.86823 30.7469 8.27496C34.1537 11.6818 36.0302 16.2086 36.0302 21.0276C36.0302 21.3838 36.0204 21.7473 35.9983 22.1035C35.9958 22.1501 35.9934 22.2017 35.9885 22.2533C35.986 22.2902 35.9836 22.327 35.9811 22.3638L35.9811 22.381C35.9762 22.4547 35.9688 22.5309 35.9615 22.6046C35.9565 22.666 35.9516 22.7323 35.9443 22.7986C35.9344 22.8919 35.9246 22.9902 35.9148 23.0884C35.9074 23.1449 35.9025 23.2063 35.8927 23.2702C35.8829 23.3488 35.873 23.4372 35.8607 23.5281C35.8534 23.5772 35.846 23.6263 35.8387 23.673C35.8288 23.7565 35.8141 23.8449 35.7993 23.9358C35.792 23.9825 35.7822 24.0365 35.7748 24.0881C35.7674 24.1323 35.7601 24.1765 35.7502 24.2208C35.7404 24.2772 35.7281 24.3436 35.7159 24.4074C35.706 24.4639 35.6937 24.5253 35.679 24.5867C35.6667 24.6555 35.652 24.7267 35.6348 24.8004C35.5316 25.2916 35.4039 25.7878 35.259 26.2668C35.2393 26.3331 35.2197 26.4019 35.1951 26.4706C35.1779 26.5247 35.1607 26.5787 35.1436 26.6352C35.0404 26.952 34.9274 27.2689 34.807 27.5759C34.7899 27.6177 34.7726 27.6619 34.7555 27.7061C34.7358 27.7552 34.7162 27.8044 34.6965 27.8535C34.6719 27.9124 34.6449 27.9788 34.6179 28.045C34.5983 28.0942 34.5737 28.1507 34.5491 28.2047L34.5393 28.2293C34.5049 28.303 34.473 28.3791 34.4386 28.4528C34.4141 28.5093 34.3895 28.5634 34.3625 28.6174C33.9081 29.5999 33.3554 30.548 32.7242 31.4371L32.6235 31.5771C32.5498 31.6778 32.4785 31.7736 32.4073 31.8669C32.3729 31.9136 32.3361 31.9603 32.2993 32.007C32.2206 32.1101 32.1396 32.2108 32.061 32.3091C32.0143 32.3655 31.9677 32.4269 31.9185 32.4835C31.8768 32.535 31.8326 32.5891 31.7859 32.6431L31.7761 32.653C31.727 32.7094 31.6778 32.7684 31.6263 32.8248C31.5698 32.8887 31.5133 32.955 31.4568 33.0189L33.574 35.1386C37.0889 31.275 39.0195 26.2791 39.0195 21.0252Z" fill="#FFFFFF" fill-opacity="1.000000" fill-rule="nonzero"/>
		<path id="Vector" d="M23.027 32.8692L25.2769 35.1191C26.7113 34.3748 28.0205 33.4194 29.1724 32.2748C32.1911 29.2758 33.8515 25.2819 33.8515 21.0278C33.8515 16.7933 32.201 12.8093 29.2068 9.81512C26.2102 6.81854 22.2287 5.16797 17.9918 5.16797C17.8591 5.16797 17.7265 5.17041 17.5938 5.17285C17.5275 5.17285 17.4637 5.17535 17.3973 5.1778L17.39 5.1778C17.2917 5.18268 17.1959 5.18762 17.0977 5.1925C17.0191 5.19745 16.9429 5.20233 16.8643 5.20728C16.825 5.20972 16.7906 5.21216 16.7587 5.21466L16.7047 5.21954C16.6359 5.22449 16.5622 5.23181 16.491 5.2392C16.4272 5.24658 16.3682 5.25146 16.3068 5.25885C16.2626 5.26373 16.2233 5.26868 16.1864 5.27112L16.125 5.2785C16.1176 5.2785 16.1103 5.28094 16.1054 5.28094C16.0538 5.28589 16.0022 5.29321 15.9506 5.3006C15.7542 5.3252 15.5626 5.35461 15.3734 5.38409C15.3194 5.39392 15.2678 5.40131 15.2162 5.41113L15.199 5.41357C15.1573 5.42096 15.118 5.42834 15.0787 5.43567L15.0517 5.44061C15.0001 5.45044 14.9485 5.46027 14.8945 5.47009C14.7471 5.49713 14.6071 5.52655 14.4695 5.55853C14.3762 5.57819 14.2829 5.60272 14.1895 5.62482L14.1772 5.62726C14.1527 5.6322 14.1306 5.63708 14.106 5.64447C14.0372 5.66168 13.9758 5.67883 13.912 5.6936C13.8579 5.70831 13.8088 5.72064 13.7572 5.73535C13.713 5.74762 13.6737 5.75745 13.6344 5.76971C13.5976 5.77954 13.5681 5.78937 13.5411 5.79675L13.519 5.80414C13.4797 5.81396 13.4404 5.82623 13.4011 5.8385C13.3348 5.85815 13.2783 5.87537 13.2218 5.89502C13.1751 5.90973 13.1358 5.922 13.0916 5.93433C12.959 5.97852 12.8263 6.02271 12.6961 6.0694C12.6593 6.08167 12.6274 6.09393 12.593 6.10626L12.5635 6.11609C12.5193 6.13324 12.48 6.14557 12.4407 6.16272C12.3719 6.18732 12.313 6.20941 12.254 6.23395C12.2049 6.2536 12.1631 6.27081 12.1189 6.28802C12.0379 6.31995 11.9642 6.34943 11.8905 6.38135L11.6695 6.47467C11.6007 6.50415 11.5344 6.53363 11.468 6.56311C11.4312 6.58032 11.3968 6.59503 11.3624 6.60974L11.3305 6.62451C11.2765 6.64905 11.2224 6.67609 11.1684 6.70062C10.8344 6.86029 10.5052 7.02979 10.1884 7.21155C10.1515 7.2312 10.122 7.24841 10.0876 7.26801C10.0189 7.30731 9.94763 7.34906 9.88132 7.38837L9.65289 7.52838C9.60623 7.55786 9.5571 7.58978 9.508 7.61926C9.34589 7.72241 9.1813 7.83051 9.00446 7.95331C8.95779 7.98523 8.91357 8.01715 8.86935 8.04663L8.8399 8.06628C8.79813 8.09576 8.76129 8.1228 8.72446 8.14984L8.70972 8.15967C8.68515 8.17932 8.66058 8.19647 8.63358 8.21613L8.62375 8.22351C8.57709 8.25543 8.53287 8.28979 8.48865 8.32422C8.43707 8.36102 8.39041 8.40033 8.34128 8.43719C8.30688 8.46423 8.27744 8.48633 8.2504 8.50842L8.216 8.53546C8.1669 8.57477 8.1153 8.61401 8.06619 8.65582C8.0097 8.70001 7.95566 8.7467 7.90161 8.79089C7.80582 8.86951 7.71249 8.94806 7.6167 9.03162C7.58722 9.05615 7.56021 9.08075 7.53073 9.10773L9.65289 11.2299C11.974 9.25018 14.919 8.16455 17.9893 8.16455C25.0829 8.16455 30.8549 13.9366 30.8549 21.0302C30.8549 24.4886 29.5016 27.7332 27.0478 30.1674C25.8983 31.3046 24.5179 32.233 23.027 32.8692Z" fill="#1D2A38" fill-opacity="1.000000" fill-rule="nonzero"/>
	</g>
	<rect id="Frame" width="110.000000" height="21.643520" transform="translate(50.000000 12.000000)" fill="#FFFFFF" fill-opacity="0"/>
	<g clip-path="url(#clip8_140)">
		<path id="Vector" d="M57.9196 30.2354L57.3059 32.0896L58.5464 32.0896L57.9327 30.2354L57.9196 30.2354Z" fill="#FFFFFF" fill-opacity="1.000000" fill-rule="nonzero"/>
		<path id="Vector" d="M58.8076 19.7498C58.5986 20.6835 58.2004 21.3951 57.6258 21.8848C57.0382 22.3549 56.3266 22.5964 55.4778 22.5964C54.7857 22.5964 54.1459 22.4202 53.5387 22.0742C52.9511 21.7281 52.5136 21.1927 52.2394 20.4811C51.9391 19.7694 51.802 18.9207 51.802 17.9674C51.802 17.2231 51.9261 16.4919 52.1676 15.7998C52.4092 15.1012 52.827 14.5463 53.4016 14.1349C53.9892 13.7366 54.7335 13.5277 55.6018 13.5277C56.3658 13.5277 56.986 13.704 57.4887 14.0827C57.9915 14.4483 58.3701 15.0359 58.6313 15.8521L58.6639 15.9369L60.4006 15.5386L60.368 15.4342C60.0415 14.3569 59.467 13.5081 58.6509 12.9009C57.8347 12.3134 56.8293 12.0195 55.6345 12.0195C54.5964 12.0195 53.6236 12.248 52.7356 12.7116C51.8738 13.1948 51.1817 13.8868 50.7117 14.7943C50.2416 15.6953 50 16.7661 50 17.9674C50 19.0773 50.2089 20.135 50.6268 21.0883C51.0446 22.0611 51.6649 22.825 52.481 23.3277C53.2775 23.85 54.3352 24.1111 55.6214 24.1111C56.8554 24.1111 57.9131 23.7651 58.7749 23.1057C59.6433 22.4463 60.2309 21.4604 60.5639 20.1938L60.5965 20.0894L58.8467 19.6584L58.8076 19.7498Z" fill="#FFFFFF" fill-opacity="1.000000" fill-rule="nonzero"/>
		<path id="Vector" d="M74.6925 12.7834C73.8046 12.2612 72.7991 12 71.7088 12C70.0244 12 68.6402 12.5549 67.5825 13.6453C66.5248 14.7357 65.9894 16.283 65.9894 18.2025C65.9894 19.2275 66.218 20.1938 66.6815 21.1144C67.132 22.035 67.811 22.7597 68.6924 23.3016C69.5739 23.837 70.5858 24.0981 71.6892 24.0981C72.7273 24.0981 73.7001 23.8566 74.5815 23.3669C75.4825 22.8969 76.1746 22.1721 76.6773 21.2319C77.1605 20.3114 77.4086 19.2406 77.4086 18.0589C77.4086 16.8967 77.167 15.8586 76.7165 14.938C76.253 14.0305 75.5739 13.2993 74.6925 12.7834ZM74.5032 21.4148C73.772 22.1917 72.8187 22.5965 71.6957 22.5965C70.5858 22.5965 69.6522 22.1982 68.9014 21.4343C68.1701 20.6509 67.7914 19.5801 67.7914 18.2286C67.7914 16.5442 68.1897 15.3167 68.9536 14.605C69.7175 13.8934 70.6511 13.5278 71.7088 13.5278C72.4727 13.5278 73.1452 13.7171 73.7524 14.0828C74.34 14.4484 74.8101 14.9838 75.1234 15.6627C75.4369 16.3417 75.5935 17.1514 75.5935 18.072C75.5935 19.5083 75.2279 20.6378 74.5032 21.4148Z" fill="#FFFFFF" fill-opacity="1.000000" fill-rule="nonzero"/>
		<path id="Vector" d="M92.5689 12.5027L89.7745 20.4615C89.546 21.1013 89.3762 21.6041 89.2522 22.0023L88.7821 20.6182L85.9942 12.3982L85.8049 12.3982L85.8049 16.6486L88.3904 24.1046L89.9312 24.1046L92.5689 16.6616L92.5689 12.5027Z" fill="#FFFFFF" fill-opacity="1.000000" fill-rule="nonzero"/>
		<path id="Vector" d="M83.4805 12.3982L85.1781 12.3982L85.1781 24.1046L83.4805 24.1046L83.4805 12.3982Z" fill="#FFFFFF" fill-opacity="1.000000" fill-rule="evenodd"/>
		<path id="Vector" d="M93.1891 12.3982L94.8736 12.3982L94.8736 24.1046L93.1891 24.1046L93.1891 12.3982Z" fill="#FFFFFF" fill-opacity="1.000000" fill-rule="evenodd"/>
		<path id="Vector" d="M100.945 12.3982L102.695 12.3982L102.695 24.1046L100.945 24.1046L100.945 12.3982Z" fill="#FFFFFF" fill-opacity="1.000000" fill-rule="evenodd"/>
		<path id="Vector" d="M109.734 14.2198C109.472 13.7366 109.159 13.3384 108.748 13.0772C108.349 12.7964 107.847 12.6071 107.272 12.5222C106.854 12.4374 106.247 12.3982 105.47 12.3982L103.322 12.3982L103.322 13.9586L105.594 13.9586C106.286 13.9586 106.756 13.9913 107.017 14.063C107.396 14.1675 107.71 14.3765 107.938 14.7029C108.18 15.0294 108.284 15.4146 108.284 15.8846C108.284 16.5114 108.095 16.9946 107.697 17.3406C107.298 17.6866 106.606 17.8629 105.633 17.8629L103.329 17.8629L103.329 19.4429L105.62 19.4429C107.285 19.4429 108.48 19.0773 109.12 18.3853C109.779 17.6932 110.106 16.8444 110.106 15.8389C110.099 15.2448 109.975 14.7029 109.734 14.2198Z" fill="#FFFFFF" fill-opacity="1.000000" fill-rule="nonzero"/>
		<path id="Vector" d="M120.741 12.3983L116.165 24.1047L118.019 24.1047L118.541 22.7336L118.522 22.7336L119.84 19.1819L120.121 18.4507L121.094 15.8652L121.113 15.8652C121.322 15.2906 121.492 14.7031 121.636 14.1285C121.812 14.6835 122.054 15.3625 122.347 16.1198L123.529 19.1688L120.532 19.1688L119.997 20.6052L124.091 20.6052L125.462 24.0917L127.453 24.0917L122.563 12.3853L120.741 12.3853L120.741 12.3983Z" fill="#FFFFFF" fill-opacity="1.000000" fill-rule="nonzero"/>
		<path id="Vector" d="M133.336 12.3982L134.968 12.3982L134.968 24.1046L133.336 24.1046L133.336 12.3982Z" fill="#FFFFFF" fill-opacity="1.000000" fill-rule="evenodd"/>
		<path id="Vector" d="M141.066 21.1927L141.033 21.1405L141.033 24.1046L142.764 24.1046L142.764 12.3982L141.066 12.3982L141.066 21.1927Z" fill="#FFFFFF" fill-opacity="1.000000" fill-rule="nonzero"/>
		<path id="Vector" d="M135.588 16.1459L140.407 23.2167L140.407 20.2199L135.588 13.1621L135.588 16.1459Z" fill="#FFFFFF" fill-opacity="1.000000" fill-rule="nonzero"/>
		<path id="Vector" d="M157.917 12.3982L155.613 15.8325C155.162 16.5114 154.764 17.1513 154.418 17.7062L154.418 17.6866L153.445 19.1622L153.445 24.1046L155.214 24.1046L155.214 19.1622L159.98 12.3982L157.917 12.3982Z" fill="#FFFFFF" fill-opacity="1.000000" fill-rule="nonzero"/>
		<path id="Vector" d="M154.052 17.0795L153.327 15.9173L150.983 12.3982L148.835 12.3982L153.066 18.6072L154.052 17.0795Z" fill="#FFFFFF" fill-opacity="1.000000" fill-rule="nonzero"/>
		<path id="Vector" d="M50 29.9415L51.1622 29.9415L51.1622 33.6108L51.8085 33.6108L51.8085 29.9415L52.9707 29.9415L52.9707 29.3669L50 29.3669L50 29.9415Z" fill="#FFFFFF" fill-opacity="1.000000" fill-rule="nonzero"/>
		<path id="Vector" d="M57.6585 29.3669L56.1176 33.6108L56.7967 33.6108L57.1231 32.6641L58.7357 32.6641L59.0622 33.6108L59.7412 33.6108L58.2004 29.3669L57.6585 29.3669ZM57.3059 32.0895L57.9196 30.2353L57.9327 30.2353L58.5464 32.0895L57.3059 32.0895Z" fill="#FFFFFF" fill-opacity="1.000000" fill-rule="nonzero"/>
		<path id="Vector" d="M65.0362 31.8806L65.898 31.8806L65.898 32.1026C65.8915 32.3703 65.8131 32.5858 65.6499 32.749C65.4867 32.9188 65.2778 33.0036 65.0297 33.0036C64.8795 33.0036 64.7489 32.971 64.6379 32.9057C64.5269 32.8535 64.4355 32.7816 64.3702 32.6902C64.2854 32.5988 64.2331 32.4813 64.207 32.3311C64.1744 32.181 64.1613 31.9002 64.1613 31.4824C64.1613 31.0645 64.1744 30.7838 64.207 30.6271C64.2331 30.4835 64.2919 30.3659 64.3702 30.2745C64.4355 30.1896 64.5269 30.1113 64.6379 30.0591C64.7489 30.0003 64.8795 29.9742 65.0297 29.9677C65.2321 29.9742 65.4084 30.033 65.552 30.1439C65.6891 30.2615 65.787 30.4116 65.8393 30.5814L66.5183 30.5814C66.453 30.2288 66.2898 29.9285 66.0286 29.6869C65.7675 29.4453 65.4345 29.3278 65.0297 29.3213C64.6967 29.3278 64.416 29.4062 64.194 29.5629C63.9655 29.713 63.8022 29.8893 63.6978 30.0852C63.6325 30.1896 63.5868 30.3202 63.5541 30.49C63.528 30.6597 63.5084 30.9862 63.5084 31.4824C63.5084 31.9655 63.5215 32.2985 63.5541 32.4683C63.5672 32.5596 63.5868 32.638 63.6129 32.6968C63.639 32.7556 63.6651 32.8143 63.6978 32.8796C63.8022 33.0754 63.9655 33.2452 64.194 33.3954C64.416 33.5521 64.6967 33.6304 65.0297 33.637C65.4606 33.6304 65.8197 33.4802 66.107 33.1995C66.3877 32.9122 66.5379 32.5596 66.5444 32.1287L66.5444 31.2669L65.0362 31.2669L65.0362 31.8806Z" fill="#FFFFFF" fill-opacity="1.000000" fill-rule="nonzero"/>
		<path id="Vector" d="M71.5129 29.3669L70.8731 29.3669L70.8731 33.6108L73.5826 33.6108L73.5826 33.0036L71.5129 33.0036L71.5129 29.3669Z" fill="#FFFFFF" fill-opacity="1.000000" fill-rule="nonzero"/>
		<path id="Vector" d="M77.7677 29.3669L78.4075 29.3669L78.4075 33.6108L77.7677 33.6108L77.7677 29.3669Z" fill="#FFFFFF" fill-opacity="1.000000" fill-rule="evenodd"/>
		<path id="Vector" d="M85.4131 32.3833L85.4066 32.3833L83.4806 29.3669L82.8799 29.3669L82.8799 33.6108L83.5197 33.6108L83.5197 30.5944L83.5328 30.5944L85.4523 33.6108L86.0595 33.6108L86.0595 29.3669L85.4131 29.3669L85.4131 32.3833Z" fill="#FFFFFF" fill-opacity="1.000000" fill-rule="nonzero"/>
		<path id="Vector" d="M90.5318 33.6108L93.2413 33.6108L93.2413 33.0036L91.1782 33.0036L91.1782 31.7565L92.941 31.7565L92.941 31.1885L91.1782 31.1885L91.1782 29.9741L93.2413 29.9741L93.2413 29.3669L90.5318 29.3669L90.5318 33.6108Z" fill="#FFFFFF" fill-opacity="1.000000" fill-rule="nonzero"/>
		<path id="Vector" d="M103.805 31.8806L104.667 31.8806L104.667 32.1026C104.66 32.3703 104.582 32.5858 104.419 32.749C104.256 32.9188 104.047 33.0036 103.799 33.0036C103.648 33.0036 103.518 32.971 103.407 32.9057C103.296 32.8535 103.205 32.7816 103.139 32.6902C103.054 32.5988 103.002 32.4813 102.976 32.3311C102.943 32.181 102.93 31.9002 102.93 31.4824C102.93 31.0645 102.943 30.7838 102.976 30.6271C103.002 30.4835 103.061 30.3659 103.139 30.2745C103.205 30.1896 103.296 30.1113 103.407 30.0591C103.518 30.0003 103.648 29.9742 103.799 29.9677C104.008 29.9742 104.177 30.033 104.321 30.1439C104.458 30.2615 104.556 30.4116 104.608 30.5814L105.287 30.5814C105.222 30.2288 105.059 29.9285 104.798 29.6869C104.543 29.4453 104.203 29.3278 103.799 29.3213C103.466 29.3278 103.185 29.4062 102.963 29.5629C102.734 29.713 102.571 29.8893 102.467 30.0852C102.401 30.1896 102.356 30.3202 102.323 30.49C102.297 30.6597 102.277 30.9862 102.277 31.4824C102.277 31.9655 102.29 32.2985 102.323 32.4683C102.336 32.5596 102.356 32.638 102.382 32.6968C102.408 32.7556 102.434 32.8143 102.467 32.8796C102.571 33.0754 102.734 33.2452 102.963 33.3954C103.185 33.5521 103.466 33.6304 103.799 33.637C104.23 33.6304 104.589 33.4802 104.876 33.1995C105.157 32.9122 105.307 32.5596 105.313 32.1287L105.313 31.2669L103.805 31.2669L103.805 31.8806Z" fill="#FFFFFF" fill-opacity="1.000000" fill-rule="nonzero"/>
		<path id="Vector" d="M112.339 30.0918C112.241 29.8959 112.077 29.7196 111.855 29.5695C111.627 29.4128 111.346 29.3344 111.013 29.3279C110.68 29.3344 110.399 29.4128 110.177 29.5695C109.949 29.7196 109.786 29.8959 109.681 30.0918C109.616 30.1962 109.57 30.3268 109.538 30.4966C109.512 30.6663 109.492 30.9927 109.492 31.489C109.492 31.9721 109.505 32.3051 109.538 32.4749C109.551 32.5662 109.57 32.6446 109.596 32.7034C109.623 32.7621 109.649 32.8209 109.681 32.8862C109.786 33.082 109.949 33.2518 110.177 33.402C110.399 33.5587 110.68 33.637 111.013 33.6436C111.353 33.637 111.633 33.5521 111.855 33.402C112.077 33.2518 112.241 33.082 112.339 32.8862C112.41 32.7817 112.463 32.6446 112.489 32.4749C112.515 32.3051 112.528 31.9786 112.528 31.489C112.528 30.9993 112.515 30.6663 112.489 30.4966C112.463 30.3333 112.41 30.1962 112.339 30.0918ZM111.836 32.3377C111.803 32.4879 111.744 32.6054 111.666 32.6968C111.601 32.7817 111.516 32.8535 111.411 32.9123C111.3 32.9776 111.163 33.0102 111.013 33.0102C110.863 33.0102 110.732 32.9776 110.621 32.9123C110.51 32.86 110.419 32.7882 110.354 32.6968C110.269 32.6054 110.217 32.4879 110.191 32.3377C110.158 32.1876 110.145 31.9068 110.145 31.489C110.145 31.0711 110.158 30.7903 110.191 30.6337C110.217 30.4901 110.275 30.3725 110.354 30.2811C110.419 30.1962 110.51 30.1179 110.621 30.0657C110.732 30.0069 110.863 29.9808 111.013 29.9742C111.163 29.9808 111.3 30.0069 111.411 30.0657C111.516 30.1244 111.601 30.1962 111.666 30.2811C111.751 30.3725 111.81 30.4901 111.836 30.6337C111.862 30.7838 111.882 31.0711 111.882 31.489C111.882 31.9068 111.868 32.1876 111.836 32.3377Z" fill="#FFFFFF" fill-opacity="1.000000" fill-rule="nonzero"/>
		<path id="Vector" d="M116.85 33.6108L119.56 33.6108L119.56 33.0036L117.496 33.0036L117.496 31.7565L119.259 31.7565L119.259 31.1885L117.496 31.1885L117.496 29.9741L119.56 29.9741L119.56 29.3669L116.85 29.3669L116.85 33.6108Z" fill="#FFFFFF" fill-opacity="1.000000" fill-rule="nonzero"/>
		<path id="Vector" d="M125.325 31.1887C125.122 31.1626 124.966 31.143 124.848 31.1234C124.639 31.0842 124.489 31.0124 124.391 30.9145C124.293 30.8165 124.247 30.7056 124.247 30.5815C124.254 30.3791 124.319 30.2224 124.463 30.1245C124.593 30.0266 124.763 29.9743 124.959 29.9743C125.344 29.9808 125.69 30.0919 126.01 30.3008L126.369 29.7719C125.978 29.4911 125.521 29.341 124.992 29.3345C124.554 29.341 124.215 29.452 123.973 29.6805C123.725 29.909 123.601 30.2094 123.601 30.575C123.601 30.8818 123.699 31.143 123.895 31.3585C124.084 31.5674 124.365 31.7045 124.731 31.7632C124.933 31.7894 125.122 31.8155 125.292 31.8416C125.664 31.9069 125.847 32.0963 125.847 32.4096C125.84 32.7948 125.56 32.9907 125.011 32.9973C124.548 32.9907 124.143 32.8536 123.803 32.5728L123.379 33.056C123.83 33.4412 124.371 33.6371 124.998 33.6371C125.971 33.624 126.467 33.2127 126.487 32.4031C126.487 32.1028 126.395 31.8416 126.206 31.6131C126.017 31.3911 125.723 31.2474 125.325 31.1887Z" fill="#FFFFFF" fill-opacity="1.000000" fill-rule="nonzero"/>
		<path id="Vector" d="M138.069 31.1885L136.391 31.1885L136.391 29.3669L135.745 29.3669L135.745 33.6108L136.391 33.6108L136.391 31.7565L138.069 31.7565L138.069 33.6108L138.716 33.6108L138.716 29.3669L138.069 29.3669L138.069 31.1885Z" fill="#FFFFFF" fill-opacity="1.000000" fill-rule="nonzero"/>
		<path id="Vector" d="M143.188 33.6108L145.897 33.6108L145.897 33.0036L143.828 33.0036L143.828 31.7565L145.591 31.7565L145.591 31.1885L143.828 31.1885L143.828 29.9741L145.897 29.9741L145.897 29.3669L143.188 29.3669L143.188 33.6108Z" fill="#FFFFFF" fill-opacity="1.000000" fill-rule="nonzero"/>
		<path id="Vector" d="M153.021 30.5489C153.008 30.1571 152.87 29.8568 152.596 29.6414C152.374 29.452 152.087 29.3606 151.734 29.3606L150.076 29.3606L150.076 33.6044L150.722 33.6044L150.722 31.7894L151.545 31.7894L152.42 33.6044L153.184 33.6044L152.198 31.7241C152.74 31.5217 153.014 31.1299 153.021 30.5489ZM150.722 31.2279L150.722 29.9417L151.728 29.9417C151.93 29.9417 152.093 29.9874 152.198 30.0723C152.335 30.1702 152.407 30.3334 152.413 30.5554C152.413 30.7382 152.355 30.8949 152.237 31.019C152.12 31.1561 151.937 31.2279 151.695 31.2279L150.722 31.2279Z" fill="#FFFFFF" fill-opacity="1.000000" fill-rule="nonzero"/>
		<path id="Vector" d="M157.29 33.6108L160 33.6108L160 33.0036L157.93 33.0036L157.93 31.7565L159.693 31.7565L159.693 31.1885L157.93 31.1885L157.93 29.9741L160 29.9741L160 29.3669L157.29 29.3669L157.29 33.6108Z" fill="#FFFFFF" fill-opacity="1.000000" fill-rule="nonzero"/>
	</g>
</svg>
