<svg width="160.000000" height="46.000000" viewBox="0 0 160 46" fill="none" xmlns="http://www.w3.org/2000/svg" xmlns:xlink="http://www.w3.org/1999/xlink">
	<desc>
			Created with Pixso.
	</desc>
	<defs>
		<clipPath id="clip8_173">
			<rect id="Frame" width="39.019436" height="46.000000" fill="white" fill-opacity="0"/>
		</clipPath>
		<clipPath id="clip8_178">
			<rect id="Frame" width="110.000000" height="21.643520" transform="translate(50.000000 12.000000)" fill="white" fill-opacity="0"/>
		</clipPath>
	</defs>
	<rect id="Frame" width="39.019436" height="46.000000" fill="#FFFFFF" fill-opacity="0"/>
	<g clip-path="url(#clip8_173)">
		<path id="Vector" d="M36.7229 33.864C36.1088 34.9448 35.3842 35.9617 34.559 36.8975L34.5811 36.9194L33.8147 37.6882C30.403 41.1196 25.8615 43.011 21.0252 43.011C16.2086 43.011 11.6793 41.1345 8.27252 37.7275C4.86575 34.3208 2.98923 29.7915 2.98923 24.9749C2.98923 24.6189 2.99902 24.2578 3.02115 23.8992C3.02359 23.8501 3.02606 23.8008 3.03098 23.7493L3.03098 23.7346C3.03342 23.7026 3.03589 23.6682 3.03833 23.6362L3.03833 23.6191C3.04324 23.5454 3.05063 23.4692 3.05798 23.3955C3.0629 23.3342 3.06781 23.2703 3.0752 23.2041C3.08499 23.1082 3.09482 23.01 3.10464 22.9143C3.11203 22.8577 3.11694 22.7939 3.12677 22.7324C3.1366 22.6538 3.14642 22.563 3.15869 22.4746C3.16605 22.4255 3.17343 22.3762 3.18079 22.3271C3.19061 22.2461 3.20535 22.1553 3.22009 22.0669C3.22748 22.0203 3.2373 21.9661 3.24466 21.9146C3.25201 21.8704 3.2594 21.8262 3.26923 21.782C3.27905 21.7253 3.29132 21.6592 3.30362 21.5952C3.31345 21.5388 3.32571 21.4773 3.33798 21.416C3.35272 21.3447 3.36502 21.2759 3.3822 21.2021C3.48538 20.7109 3.6131 20.2173 3.758 19.7358L3.76291 19.7236C3.78012 19.6597 3.79977 19.5959 3.82187 19.5344C3.83905 19.4805 3.85626 19.4263 3.87344 19.3699C3.97662 19.0554 4.0896 18.7361 4.20996 18.4292C4.22714 18.3875 4.24435 18.3408 4.26154 18.2966C4.28119 18.2498 4.29837 18.2007 4.3205 18.1492C4.34503 18.0901 4.37207 18.0239 4.39908 17.9575C4.41873 17.9084 4.4433 17.8521 4.46786 17.7979L4.47769 17.7734C4.51205 17.6997 4.54401 17.6235 4.5784 17.5498C4.60294 17.4934 4.6275 17.4392 4.65454 17.3853C5.10892 16.4028 5.66159 15.4546 6.29282 14.5654L6.396 14.4255C6.46722 14.3274 6.53845 14.229 6.61212 14.1357C6.64651 14.0916 6.68335 14.0422 6.72021 13.9956C6.7988 13.8926 6.87985 13.7917 6.95847 13.6936C7.00513 13.637 7.05179 13.5757 7.10092 13.5193C7.14514 13.4651 7.19424 13.4087 7.24338 13.3496C7.29004 13.2932 7.34161 13.2344 7.39075 13.1777C7.44724 13.114 7.50372 13.0476 7.56024 12.9836L5.44296 10.864C1.93057 14.7275 0 19.7212 0 24.9724C0 30.5898 2.18604 35.8682 6.15775 39.8401C10.1294 43.8118 15.4078 45.9978 21.0252 45.9978C26.6598 45.9978 31.9529 43.7969 35.9271 39.8032C37.0618 38.6636 38.0615 37.4009 38.904 36.0427L36.7229 33.864Z" fill="#C8A35F" fill-opacity="1.000000" fill-rule="nonzero"/>
		<path id="Vector" d="M9.81256 36.1875C12.8067 39.1816 16.7906 40.8323 21.0251 40.8323C21.1578 40.8323 21.2904 40.8298 21.4231 40.8271C21.4894 40.8271 21.5533 40.8247 21.6196 40.8223L21.6294 40.8223C21.7276 40.8174 21.8234 40.8125 21.9217 40.8076C22.0003 40.8027 22.0764 40.7979 22.155 40.793C22.1943 40.7905 22.2287 40.7881 22.2606 40.7854L22.3147 40.7805C22.3859 40.7756 22.4571 40.7683 22.5308 40.761C22.5947 40.7561 22.6536 40.7512 22.715 40.7437C22.7592 40.7388 22.7986 40.7339 22.8354 40.7314L22.9164 40.7217C22.968 40.7144 23.0196 40.7095 23.0736 40.7019C23.2701 40.6775 23.4617 40.6504 23.6508 40.6184C23.7049 40.6086 23.7565 40.5989 23.808 40.5916L23.8253 40.5891C23.867 40.5815 23.9088 40.5742 23.9481 40.5669L23.9677 40.562C24.0217 40.5522 24.0758 40.5422 24.1298 40.53C24.2723 40.5029 24.4123 40.4736 24.5498 40.4417C24.6432 40.4219 24.7365 40.3975 24.8298 40.3752L24.8421 40.3728C24.8667 40.3679 24.8888 40.363 24.9134 40.3557C24.9821 40.3384 25.0435 40.3213 25.1074 40.3066C25.1614 40.2917 25.213 40.2795 25.2621 40.2649C25.3063 40.2524 25.3456 40.2427 25.3825 40.2305C25.4193 40.2205 25.4488 40.2131 25.4758 40.2034L25.4979 40.196C25.5372 40.1863 25.5765 40.1738 25.6158 40.1616C25.6821 40.1421 25.7386 40.1248 25.7951 40.1052C25.8418 40.0903 25.8811 40.0781 25.9253 40.0659C26.058 40.0217 26.1906 39.9775 26.3208 39.9307C26.3576 39.9185 26.392 39.9062 26.4264 39.8938L26.4534 39.884C26.5001 39.8669 26.5418 39.8521 26.5811 39.8374C26.6474 39.8127 26.7039 39.7908 26.7629 39.7686C26.812 39.749 26.8562 39.7341 26.898 39.717C26.979 39.6851 27.0527 39.6558 27.1264 39.6238L27.3474 39.5303C27.4162 39.501 27.485 39.4714 27.5489 39.4419C27.5882 39.4248 27.6201 39.4099 27.6545 39.3953L27.6864 39.3806C27.7404 39.356 27.7945 39.3289 27.8485 39.3044C28.1826 39.1448 28.5117 38.9753 28.8286 38.7935C28.8629 38.7739 28.8949 38.7542 28.9293 38.7371C29.0029 38.6953 29.0766 38.6511 29.1479 38.6094L29.5114 38.3857C29.671 38.2827 29.838 38.1746 30.0174 38.0518C30.0665 38.0173 30.1156 37.9829 30.1647 37.9485L30.1844 37.9338C30.2212 37.9067 30.2581 37.8823 30.2949 37.8552L30.3047 37.8479C30.3318 37.8281 30.3588 37.8086 30.3858 37.7888L30.3956 37.7815C30.4423 37.7495 30.4865 37.7153 30.5307 37.6809C30.5823 37.644 30.6314 37.6047 30.6781 37.5679C30.7125 37.5408 30.7395 37.5188 30.769 37.4966L30.8033 37.4697C30.8525 37.4304 30.9041 37.3911 30.9532 37.3494C31.0048 37.3076 31.0563 37.2659 31.1055 37.2266L31.1177 37.2166C31.2135 37.1379 31.3069 37.0569 31.4026 36.9758C31.4321 36.9514 31.4592 36.9268 31.4886 36.8997L29.3689 34.7776C27.0478 36.7573 24.1028 37.8406 21.0325 37.8406C13.939 37.8406 8.16687 32.0684 8.16687 24.9749C8.16687 21.5166 9.52026 18.2717 11.974 15.8376C13.126 14.6956 14.5064 13.7695 15.9973 13.1335L13.7474 10.8835C12.313 11.6277 11.0038 12.5833 9.85184 13.7278C6.83069 16.7268 5.16785 20.7183 5.16785 24.9724C5.16785 29.2095 6.81842 33.1909 9.81256 36.1875Z" fill="#FFFFFF" fill-opacity="1.000000" fill-rule="nonzero"/>
		<path id="Vector" d="M39.0195 21.0251C39.0195 15.4077 36.8334 10.1294 32.8617 6.15771C28.89 2.18604 23.6092 0 17.9918 0C12.3572 0 7.06409 2.19824 3.09241 6.19458C1.95761 7.33179 0.957947 8.59668 0.113007 9.95508L2.29657 12.1387C2.91064 11.0579 3.63522 10.041 4.46051 9.10522L4.43842 9.08301L5.20474 8.31421C8.61395 4.88306 13.158 2.9917 17.9943 2.9917C22.8109 2.9917 27.3401 4.86816 30.7469 8.2749C34.1537 11.6816 36.0302 16.2085 36.0302 21.0276C36.0302 21.3838 36.0204 21.7473 35.9983 22.1035C35.9958 22.1501 35.9934 22.2017 35.9885 22.2534C35.986 22.29 35.9836 22.3269 35.9811 22.3638L35.9811 22.3811C35.9762 22.4548 35.9688 22.5308 35.9615 22.6045C35.9565 22.666 35.9516 22.7322 35.9443 22.7986C35.9344 22.8918 35.9246 22.9902 35.9148 23.0884C35.9074 23.145 35.9025 23.2063 35.8927 23.2703C35.8829 23.3489 35.873 23.4373 35.8607 23.5281C35.8534 23.5771 35.846 23.6262 35.8387 23.6731C35.8288 23.7566 35.8141 23.845 35.7993 23.9358C35.792 23.9824 35.7822 24.0366 35.7748 24.0881C35.7674 24.1323 35.7601 24.1765 35.7502 24.2207C35.7404 24.2773 35.7281 24.3435 35.7159 24.4075C35.706 24.4639 35.6937 24.5254 35.679 24.5867C35.6667 24.6555 35.652 24.7268 35.6348 24.8003C35.5316 25.2917 35.4039 25.7878 35.259 26.2668C35.2393 26.333 35.2197 26.4019 35.1951 26.4707C35.1779 26.5247 35.1607 26.5786 35.1436 26.6353C35.0404 26.9521 34.9274 27.2688 34.807 27.5759C34.7899 27.6177 34.7726 27.6619 34.7555 27.7061C34.7358 27.7551 34.7162 27.8044 34.6965 27.8535C34.6719 27.9124 34.6449 27.9788 34.6179 28.0452C34.5983 28.0942 34.5737 28.1506 34.5491 28.2048L34.5393 28.2292C34.5049 28.303 34.473 28.3792 34.4386 28.4529C34.4141 28.5093 34.3895 28.5632 34.3625 28.6174C33.9081 29.5999 33.3554 30.5479 32.7242 31.437L32.6235 31.5771C32.5498 31.6777 32.4785 31.7737 32.4073 31.8669C32.3729 31.9136 32.3361 31.9602 32.2993 32.0068C32.2206 32.1101 32.1396 32.2107 32.061 32.3091C32.0143 32.3655 31.9677 32.427 31.9185 32.4834C31.8768 32.5349 31.8326 32.5891 31.7859 32.6431L31.7761 32.6528C31.727 32.7095 31.6778 32.7683 31.6263 32.825C31.5698 32.8887 31.5133 32.9551 31.4568 33.0188L33.574 35.1387C37.0889 31.2749 39.0195 26.2791 39.0195 21.0251Z" fill="#FFFFFF" fill-opacity="1.000000" fill-rule="nonzero"/>
		<path id="Vector" d="M23.027 32.8691L25.2769 35.1191C26.7113 34.3748 28.0205 33.4194 29.1724 32.2749C32.1911 29.2756 33.8515 25.282 33.8515 21.0278C33.8515 16.7932 32.201 12.8093 29.2068 9.81519C26.2102 6.8186 22.2287 5.16797 17.9918 5.16797C17.8591 5.16797 17.7265 5.17041 17.5938 5.17285C17.5275 5.17285 17.4637 5.17529 17.3973 5.17773L17.39 5.17773C17.2917 5.18262 17.1959 5.1875 17.0977 5.19263C17.0191 5.19751 16.9429 5.20239 16.8643 5.20728C16.825 5.20972 16.7906 5.21216 16.7587 5.2146L16.7047 5.21948C16.6359 5.22437 16.5622 5.23193 16.491 5.23926C16.4272 5.24658 16.3682 5.25146 16.3068 5.25879C16.2626 5.26367 16.2233 5.26855 16.1864 5.27124L16.125 5.27856C16.1176 5.27856 16.1103 5.28101 16.1054 5.28101C16.0538 5.28589 16.0022 5.29321 15.9506 5.30054C15.7542 5.3252 15.5626 5.35474 15.3734 5.38403C15.3194 5.39404 15.2678 5.40137 15.2162 5.41113L15.199 5.41357C15.1573 5.4209 15.118 5.42822 15.0787 5.43579L15.0517 5.44067C15.0001 5.45044 14.9485 5.46021 14.8945 5.46997C14.7471 5.49707 14.6071 5.52661 14.4695 5.55859C14.3762 5.57812 14.2829 5.60278 14.1895 5.62476L14.1772 5.6272C14.1527 5.63208 14.1306 5.63721 14.106 5.64453C14.0372 5.66162 13.9758 5.67896 13.912 5.6936C13.8579 5.70825 13.8088 5.7207 13.7572 5.73535C13.713 5.74756 13.6737 5.75757 13.6344 5.76978C13.5976 5.77954 13.5681 5.78931 13.5411 5.79688L13.519 5.8042C13.4797 5.81396 13.4404 5.82617 13.4011 5.83862C13.3348 5.85815 13.2783 5.87524 13.2218 5.89502C13.1751 5.90967 13.1358 5.92212 13.0916 5.93433C12.959 5.97852 12.8263 6.02271 12.6961 6.06934C12.6593 6.08179 12.6274 6.09399 12.593 6.1062L12.5635 6.11597C12.5193 6.1333 12.48 6.14551 12.4407 6.16284C12.3719 6.18726 12.313 6.20947 12.254 6.23389C12.2049 6.25366 12.1631 6.27075 12.1189 6.28809C12.0379 6.31982 11.9642 6.34937 11.8905 6.38135L11.6695 6.47461C11.6007 6.50415 11.5344 6.53369 11.468 6.56299C11.4312 6.58032 11.3968 6.59497 11.3624 6.60986L11.3305 6.62451C11.2765 6.64917 11.2224 6.67603 11.1684 6.70068C10.8344 6.86035 10.5052 7.02979 10.1884 7.21143C10.1515 7.2312 10.122 7.24829 10.0876 7.26807C10.0189 7.30737 9.94763 7.34912 9.88132 7.38843L9.65289 7.52832C9.60623 7.55786 9.5571 7.58984 9.508 7.61938C9.34589 7.72241 9.1813 7.83057 9.00446 7.95337C8.95779 7.98535 8.91357 8.01709 8.86935 8.04663L8.8399 8.06641C8.79813 8.0957 8.76129 8.1228 8.72446 8.1499L8.70972 8.15967C8.68515 8.1792 8.66058 8.19653 8.63358 8.21606L8.62375 8.22339C8.57709 8.25537 8.53287 8.28979 8.48865 8.32422C8.43707 8.36108 8.39041 8.40039 8.34128 8.43726C8.30688 8.46411 8.27744 8.48633 8.2504 8.50854L8.216 8.5354C8.1669 8.57471 8.1153 8.61401 8.06619 8.65576C8.0097 8.69995 7.95566 8.74658 7.90161 8.79077C7.80582 8.86938 7.71249 8.948 7.6167 9.03149C7.58722 9.05615 7.56021 9.08081 7.53073 9.10767L9.65289 11.23C11.974 9.25024 14.919 8.16455 17.9893 8.16455C25.0829 8.16455 30.8549 13.9368 30.8549 21.0303C30.8549 24.4885 29.5016 27.7332 27.0478 30.1672C25.8983 31.3047 24.5179 32.2329 23.027 32.8691Z" fill="#C8A35F" fill-opacity="1.000000" fill-rule="nonzero"/>
	</g>
	<rect id="Frame" width="110.000000" height="21.643520" transform="translate(50.000000 12.000000)" fill="#FFFFFF" fill-opacity="0"/>
	<g clip-path="url(#clip8_178)">
		<path id="Vector" d="M57.9196 30.2354L57.3059 32.0896L58.5464 32.0896L57.9327 30.2354L57.9196 30.2354Z" fill="#FFFFFF" fill-opacity="1.000000" fill-rule="nonzero"/>
		<path id="Vector" d="M58.8076 19.7498C58.5986 20.6833 58.2004 21.395 57.6258 21.8848C57.0382 22.355 56.3266 22.5964 55.4778 22.5964C54.7857 22.5964 54.1459 22.4202 53.5387 22.0742C52.9511 21.728 52.5136 21.1926 52.2394 20.481C51.9391 19.7695 51.802 18.9207 51.802 17.9675C51.802 17.2231 51.9261 16.4919 52.1676 15.7998C52.4092 15.1013 52.827 14.5461 53.4016 14.135C53.9892 13.7366 54.7335 13.5278 55.6018 13.5278C56.3658 13.5278 56.986 13.7041 57.4887 14.0828C57.9915 14.4482 58.3701 15.0359 58.6313 15.8521L58.6639 15.937L60.4006 15.5386L60.368 15.4341C60.0415 14.3569 59.467 13.5081 58.6509 12.9009C57.8347 12.3132 56.8293 12.0195 55.6345 12.0195C54.5964 12.0195 53.6236 12.248 52.7356 12.7117C51.8738 13.1948 51.1817 13.8867 50.7117 14.7944C50.2416 15.6953 50 16.7661 50 17.9675C50 19.0774 50.2089 20.135 50.6268 21.0884C51.0446 22.061 51.6649 22.825 52.481 23.3276C53.2775 23.8501 54.3352 24.1111 55.6214 24.1111C56.8554 24.1111 57.9131 23.7651 58.7749 23.1057C59.6433 22.4463 60.2309 21.4604 60.5639 20.1938L60.5965 20.0894L58.8467 19.6584L58.8076 19.7498Z" fill="#FFFFFF" fill-opacity="1.000000" fill-rule="nonzero"/>
		<path id="Vector" d="M74.6925 12.7834C73.8046 12.2612 72.7991 12 71.7088 12C70.0244 12 68.6402 12.5549 67.5825 13.6453C66.5248 14.7356 65.9894 16.283 65.9894 18.2026C65.9894 19.2275 66.218 20.1938 66.6815 21.1145C67.132 22.0349 67.811 22.7598 68.6924 23.3018C69.5739 23.8369 70.5858 24.0981 71.6892 24.0981C72.7273 24.0981 73.7001 23.8567 74.5815 23.3669C75.4825 22.8967 76.1746 22.1721 76.6773 21.2319C77.1605 20.3113 77.4086 19.2407 77.4086 18.0588C77.4086 16.8967 77.167 15.8586 76.7165 14.938C76.253 14.0305 75.5739 13.2993 74.6925 12.7834ZM74.5032 21.4148C73.772 22.1917 72.8187 22.5964 71.6957 22.5964C70.5858 22.5964 69.6522 22.1982 68.9014 21.4343C68.1701 20.6509 67.7914 19.5801 67.7914 18.2285C67.7914 16.5442 68.1897 15.3167 68.9536 14.605C69.7175 13.8933 70.6511 13.5278 71.7088 13.5278C72.4727 13.5278 73.1452 13.717 73.7524 14.0828C74.34 14.4482 74.8101 14.9836 75.1234 15.6628C75.4369 16.3418 75.5935 17.1514 75.5935 18.072C75.5935 19.5083 75.2279 20.6379 74.5032 21.4148Z" fill="#FFFFFF" fill-opacity="1.000000" fill-rule="nonzero"/>
		<path id="Vector" d="M92.5689 12.5027L89.7745 20.4614C89.546 21.1013 89.3762 21.604 89.2522 22.0022L88.7821 20.6182L85.9942 12.3982L85.8049 12.3982L85.8049 16.6484L88.3904 24.1047L89.9312 24.1047L92.5689 16.6616L92.5689 12.5027Z" fill="#FFFFFF" fill-opacity="1.000000" fill-rule="nonzero"/>
		<path id="Vector" d="M83.4805 12.3982L85.1781 12.3982L85.1781 24.1047L83.4805 24.1047L83.4805 12.3982Z" fill="#FFFFFF" fill-opacity="1.000000" fill-rule="evenodd"/>
		<path id="Vector" d="M93.1891 12.3982L94.8736 12.3982L94.8736 24.1047L93.1891 24.1047L93.1891 12.3982Z" fill="#FFFFFF" fill-opacity="1.000000" fill-rule="evenodd"/>
		<path id="Vector" d="M100.945 12.3982L102.695 12.3982L102.695 24.1047L100.945 24.1047L100.945 12.3982Z" fill="#FFFFFF" fill-opacity="1.000000" fill-rule="evenodd"/>
		<path id="Vector" d="M109.734 14.2197C109.472 13.7366 109.159 13.3384 108.748 13.0771C108.349 12.7964 107.847 12.6072 107.272 12.5222C106.854 12.4373 106.247 12.3982 105.47 12.3982L103.322 12.3982L103.322 13.9585L105.594 13.9585C106.286 13.9585 106.756 13.9912 107.017 14.063C107.396 14.1675 107.71 14.3765 107.938 14.7029C108.18 15.0293 108.284 15.4146 108.284 15.8848C108.284 16.5115 108.095 16.9946 107.697 17.3406C107.298 17.6868 106.606 17.863 105.633 17.863L103.329 17.863L103.329 19.4429L105.62 19.4429C107.285 19.4429 108.48 19.0774 109.12 18.3853C109.779 17.6931 110.106 16.8445 110.106 15.8389C110.099 15.2449 109.975 14.7029 109.734 14.2197Z" fill="#FFFFFF" fill-opacity="1.000000" fill-rule="nonzero"/>
		<path id="Vector" d="M120.741 12.3982L116.165 24.1047L118.019 24.1047L118.541 22.7336L118.522 22.7336L119.84 19.1819L120.121 18.4507L121.094 15.8652L121.113 15.8652C121.322 15.2905 121.492 14.7031 121.636 14.1284C121.812 14.6833 122.054 15.3625 122.347 16.1199L123.529 19.1689L120.532 19.1689L119.997 20.6052L124.091 20.6052L125.462 24.0918L127.453 24.0918L122.563 12.3853L120.741 12.3853L120.741 12.3982Z" fill="#FFFFFF" fill-opacity="1.000000" fill-rule="nonzero"/>
		<path id="Vector" d="M133.336 12.3982L134.968 12.3982L134.968 24.1047L133.336 24.1047L133.336 12.3982Z" fill="#FFFFFF" fill-opacity="1.000000" fill-rule="evenodd"/>
		<path id="Vector" d="M141.066 21.1926L141.033 21.1404L141.033 24.1047L142.764 24.1047L142.764 12.3982L141.066 12.3982L141.066 21.1926Z" fill="#FFFFFF" fill-opacity="1.000000" fill-rule="nonzero"/>
		<path id="Vector" d="M135.588 16.1458L140.407 23.2168L140.407 20.22L135.588 13.1621L135.588 16.1458Z" fill="#FFFFFF" fill-opacity="1.000000" fill-rule="nonzero"/>
		<path id="Vector" d="M157.917 12.3982L155.613 15.8325C155.162 16.5115 154.764 17.1514 154.418 17.7063L154.418 17.6868L153.445 19.1621L153.445 24.1047L155.214 24.1047L155.214 19.1621L159.98 12.3982L157.917 12.3982Z" fill="#FFFFFF" fill-opacity="1.000000" fill-rule="nonzero"/>
		<path id="Vector" d="M154.052 17.0793L153.327 15.9172L150.983 12.3982L148.835 12.3982L153.066 18.6072L154.052 17.0793Z" fill="#FFFFFF" fill-opacity="1.000000" fill-rule="nonzero"/>
		<path id="Vector" d="M50 29.9414L51.1622 29.9414L51.1622 33.6108L51.8085 33.6108L51.8085 29.9414L52.9707 29.9414L52.9707 29.3669L50 29.3669L50 29.9414Z" fill="#FFFFFF" fill-opacity="1.000000" fill-rule="nonzero"/>
		<path id="Vector" d="M57.6585 29.3669L56.1176 33.6108L56.7967 33.6108L57.1231 32.6641L58.7357 32.6641L59.0622 33.6108L59.7412 33.6108L58.2004 29.3669L57.6585 29.3669ZM57.3059 32.0896L57.9196 30.2354L57.9327 30.2354L58.5464 32.0896L57.3059 32.0896Z" fill="#FFFFFF" fill-opacity="1.000000" fill-rule="nonzero"/>
		<path id="Vector" d="M65.0362 31.8806L65.898 31.8806L65.898 32.1025C65.8915 32.3704 65.8131 32.5857 65.6499 32.749C65.4867 32.9187 65.2778 33.0037 65.0297 33.0037C64.8795 33.0037 64.7489 32.9709 64.6379 32.9058C64.5269 32.8535 64.4355 32.7817 64.3702 32.6902C64.2854 32.5989 64.2331 32.4812 64.207 32.3311C64.1744 32.1809 64.1613 31.9001 64.1613 31.4824C64.1613 31.0645 64.1744 30.7837 64.207 30.6272C64.2331 30.4834 64.2919 30.366 64.3702 30.2744C64.4355 30.1897 64.5269 30.1113 64.6379 30.0591C64.7489 30.0002 64.8795 29.9741 65.0297 29.9678C65.2321 29.9741 65.4084 30.033 65.552 30.144C65.6891 30.2615 65.787 30.4116 65.8393 30.5813L66.5183 30.5813C66.453 30.2288 66.2898 29.9285 66.0286 29.687C65.7675 29.4453 65.4345 29.3279 65.0297 29.3213C64.6967 29.3279 64.416 29.4062 64.194 29.5627C63.9655 29.7131 63.8022 29.8894 63.6978 30.0852C63.6325 30.1897 63.5868 30.3203 63.5541 30.49C63.528 30.6597 63.5084 30.9861 63.5084 31.4824C63.5084 31.9656 63.5215 32.2986 63.5541 32.4683C63.5672 32.5596 63.5868 32.6379 63.6129 32.6968C63.639 32.7556 63.6651 32.8142 63.6978 32.8796C63.8022 33.0754 63.9655 33.2451 64.194 33.3953C64.416 33.552 64.6967 33.6304 65.0297 33.637C65.4606 33.6304 65.8197 33.4802 66.107 33.1995C66.3877 32.9121 66.5379 32.5596 66.5444 32.1287L66.5444 31.2668L65.0362 31.2668L65.0362 31.8806Z" fill="#FFFFFF" fill-opacity="1.000000" fill-rule="nonzero"/>
		<path id="Vector" d="M71.5129 29.3669L70.8731 29.3669L70.8731 33.6108L73.5826 33.6108L73.5826 33.0037L71.5129 33.0037L71.5129 29.3669Z" fill="#FFFFFF" fill-opacity="1.000000" fill-rule="nonzero"/>
		<path id="Vector" d="M77.7677 29.3669L78.4075 29.3669L78.4075 33.6108L77.7677 33.6108L77.7677 29.3669Z" fill="#FFFFFF" fill-opacity="1.000000" fill-rule="evenodd"/>
		<path id="Vector" d="M85.4131 32.3833L85.4066 32.3833L83.4806 29.3669L82.8799 29.3669L82.8799 33.6108L83.5197 33.6108L83.5197 30.5945L83.5328 30.5945L85.4523 33.6108L86.0595 33.6108L86.0595 29.3669L85.4131 29.3669L85.4131 32.3833Z" fill="#FFFFFF" fill-opacity="1.000000" fill-rule="nonzero"/>
		<path id="Vector" d="M90.5318 33.6108L93.2413 33.6108L93.2413 33.0037L91.1782 33.0037L91.1782 31.7566L92.941 31.7566L92.941 31.1885L91.1782 31.1885L91.1782 29.9741L93.2413 29.9741L93.2413 29.3669L90.5318 29.3669L90.5318 33.6108Z" fill="#FFFFFF" fill-opacity="1.000000" fill-rule="nonzero"/>
		<path id="Vector" d="M103.805 31.8806L104.667 31.8806L104.667 32.1025C104.66 32.3704 104.582 32.5857 104.419 32.749C104.256 32.9187 104.047 33.0037 103.799 33.0037C103.648 33.0037 103.518 32.9709 103.407 32.9058C103.296 32.8535 103.205 32.7817 103.139 32.6902C103.054 32.5989 103.002 32.4812 102.976 32.3311C102.943 32.1809 102.93 31.9001 102.93 31.4824C102.93 31.0645 102.943 30.7837 102.976 30.6272C103.002 30.4834 103.061 30.366 103.139 30.2744C103.205 30.1897 103.296 30.1113 103.407 30.0591C103.518 30.0002 103.648 29.9741 103.799 29.9678C104.008 29.9741 104.177 30.033 104.321 30.144C104.458 30.2615 104.556 30.4116 104.608 30.5813L105.287 30.5813C105.222 30.2288 105.059 29.9285 104.798 29.687C104.543 29.4453 104.203 29.3279 103.799 29.3213C103.466 29.3279 103.185 29.4062 102.963 29.5627C102.734 29.7131 102.571 29.8894 102.467 30.0852C102.401 30.1897 102.356 30.3203 102.323 30.49C102.297 30.6597 102.277 30.9861 102.277 31.4824C102.277 31.9656 102.29 32.2986 102.323 32.4683C102.336 32.5596 102.356 32.6379 102.382 32.6968C102.408 32.7556 102.434 32.8142 102.467 32.8796C102.571 33.0754 102.734 33.2451 102.963 33.3953C103.185 33.552 103.466 33.6304 103.799 33.637C104.23 33.6304 104.589 33.4802 104.876 33.1995C105.157 32.9121 105.307 32.5596 105.313 32.1287L105.313 31.2668L103.805 31.2668L103.805 31.8806Z" fill="#FFFFFF" fill-opacity="1.000000" fill-rule="nonzero"/>
		<path id="Vector" d="M112.339 30.0918C112.241 29.896 112.077 29.7197 111.855 29.5693C111.627 29.4128 111.346 29.3345 111.013 29.3279C110.68 29.3345 110.399 29.4128 110.177 29.5693C109.949 29.7197 109.786 29.896 109.681 30.0918C109.616 30.1963 109.57 30.3269 109.538 30.4966C109.512 30.6663 109.492 30.9927 109.492 31.489C109.492 31.9722 109.505 32.3052 109.538 32.4749C109.551 32.5662 109.57 32.6445 109.596 32.7034C109.623 32.7622 109.649 32.8208 109.681 32.8862C109.786 33.082 109.949 33.2517 110.177 33.4019C110.399 33.5586 110.68 33.637 111.013 33.6436C111.353 33.637 111.633 33.552 111.855 33.4019C112.077 33.2517 112.241 33.082 112.339 32.8862C112.41 32.7817 112.463 32.6445 112.489 32.4749C112.515 32.3052 112.528 31.9788 112.528 31.489C112.528 30.9993 112.515 30.6663 112.489 30.4966C112.463 30.3333 112.41 30.1963 112.339 30.0918ZM111.836 32.3376C111.803 32.4878 111.744 32.6055 111.666 32.6968C111.601 32.7817 111.516 32.8535 111.411 32.9124C111.3 32.9775 111.163 33.0103 111.013 33.0103C110.863 33.0103 110.732 32.9775 110.621 32.9124C110.51 32.8601 110.419 32.7883 110.354 32.6968C110.269 32.6055 110.217 32.4878 110.191 32.3376C110.158 32.1875 110.145 31.9067 110.145 31.489C110.145 31.071 110.158 30.7903 110.191 30.6338C110.217 30.49 110.275 30.3726 110.354 30.281C110.419 30.1963 110.51 30.1179 110.621 30.0657C110.732 30.0068 110.863 29.9807 111.013 29.9744C111.163 29.9807 111.3 30.0068 111.411 30.0657C111.516 30.1245 111.601 30.1963 111.666 30.281C111.751 30.3726 111.81 30.49 111.836 30.6338C111.862 30.7839 111.882 31.071 111.882 31.489C111.882 31.9067 111.868 32.1875 111.836 32.3376Z" fill="#FFFFFF" fill-opacity="1.000000" fill-rule="nonzero"/>
		<path id="Vector" d="M116.85 33.6108L119.56 33.6108L119.56 33.0037L117.496 33.0037L117.496 31.7566L119.259 31.7566L119.259 31.1885L117.496 31.1885L117.496 29.9741L119.56 29.9741L119.56 29.3669L116.85 29.3669L116.85 33.6108Z" fill="#FFFFFF" fill-opacity="1.000000" fill-rule="nonzero"/>
		<path id="Vector" d="M125.325 31.1887C125.122 31.1626 124.966 31.1431 124.848 31.1233C124.639 31.0842 124.489 31.0125 124.391 30.9146C124.293 30.8167 124.247 30.7056 124.247 30.5815C124.254 30.3792 124.319 30.2224 124.463 30.1245C124.593 30.0266 124.763 29.9744 124.959 29.9744C125.344 29.981 125.69 30.0918 126.01 30.3008L126.369 29.772C125.978 29.4912 125.521 29.3411 124.992 29.3345C124.554 29.3411 124.215 29.4519 123.973 29.6804C123.725 29.9089 123.601 30.2095 123.601 30.575C123.601 30.8818 123.699 31.1431 123.895 31.3584C124.084 31.5674 124.365 31.7046 124.731 31.7632C124.933 31.7893 125.122 31.8154 125.292 31.8416C125.664 31.907 125.847 32.0962 125.847 32.4097C125.84 32.7949 125.56 32.9907 125.011 32.9973C124.548 32.9907 124.143 32.8535 123.803 32.5728L123.379 33.0559C123.83 33.4412 124.371 33.637 124.998 33.637C125.971 33.624 126.467 33.2126 126.487 32.4031C126.487 32.1028 126.395 31.8416 126.206 31.613C126.017 31.3911 125.723 31.2476 125.325 31.1887Z" fill="#FFFFFF" fill-opacity="1.000000" fill-rule="nonzero"/>
		<path id="Vector" d="M138.069 31.1885L136.391 31.1885L136.391 29.3669L135.745 29.3669L135.745 33.6108L136.391 33.6108L136.391 31.7566L138.069 31.7566L138.069 33.6108L138.716 33.6108L138.716 29.3669L138.069 29.3669L138.069 31.1885Z" fill="#FFFFFF" fill-opacity="1.000000" fill-rule="nonzero"/>
		<path id="Vector" d="M143.188 33.6108L145.897 33.6108L145.897 33.0037L143.828 33.0037L143.828 31.7566L145.591 31.7566L145.591 31.1885L143.828 31.1885L143.828 29.9741L145.897 29.9741L145.897 29.3669L143.188 29.3669L143.188 33.6108Z" fill="#FFFFFF" fill-opacity="1.000000" fill-rule="nonzero"/>
		<path id="Vector" d="M153.021 30.5488C153.008 30.1572 152.87 29.8567 152.596 29.6414C152.374 29.4519 152.087 29.3606 151.734 29.3606L150.076 29.3606L150.076 33.6045L150.722 33.6045L150.722 31.7893L151.545 31.7893L152.42 33.6045L153.184 33.6045L152.198 31.7241C152.74 31.5217 153.014 31.1299 153.021 30.5488ZM150.722 31.2278L150.722 29.9417L151.728 29.9417C151.93 29.9417 152.093 29.9873 152.198 30.0723C152.335 30.1702 152.407 30.3335 152.413 30.5554C152.413 30.7383 152.355 30.895 152.237 31.019C152.12 31.156 151.937 31.2278 151.695 31.2278L150.722 31.2278Z" fill="#FFFFFF" fill-opacity="1.000000" fill-rule="nonzero"/>
		<path id="Vector" d="M157.29 33.6108L160 33.6108L160 33.0037L157.93 33.0037L157.93 31.7566L159.693 31.7566L159.693 31.1885L157.93 31.1885L157.93 29.9741L160 29.9741L160 29.3669L157.29 29.3669L157.29 33.6108Z" fill="#FFFFFF" fill-opacity="1.000000" fill-rule="nonzero"/>
	</g>
</svg>
