<svg width="29.998421" height="30.000000" viewBox="0 0 29.9984 30" fill="none" xmlns="http://www.w3.org/2000/svg" xmlns:xlink="http://www.w3.org/1999/xlink">
	<desc>
			Created with Pixso.
	</desc>
	<defs/>
	<path id="Vector" d="M28.8916 0.0731812L25.717 1.51819C25.5137 1.612 25.3261 1.74023 25.1666 1.89972L19.9935 7.07599L2.17847 4.93982C1.85632 4.90228 1.53104 5.01172 1.30273 5.24316L0.311272 6.23462C-0.214172 6.76007 -0.0515366 7.64832 0.627159 7.95172L13.3942 13.6753L9.72857 17.3409L3.32631 17.3409C3.04482 17.3409 2.77584 17.4534 2.57568 17.6505L2.04085 18.1884C1.50916 18.7201 1.6843 19.6177 2.37238 19.9117L7.7738 22.2262L10.0882 27.6276C10.3822 28.3157 11.283 28.4908 11.8116 27.9592L12.3495 27.4212C12.5497 27.2211 12.6592 26.9521 12.6592 26.6706L12.6592 20.2683L16.3247 16.6027L22.0483 29.3729C22.3517 30.0516 23.2399 30.2142 23.7654 29.6888L24.7568 28.6973C24.9883 28.4659 25.0977 28.1437 25.0602 27.8216L22.9209 10.0066L28.0971 4.83038C28.2567 4.67084 28.3849 4.48633 28.4787 4.27991L29.9237 1.10535C30.2271 0.45166 29.5515 -0.227051 28.8916 0.0731812Z" fill="#FFFFFF" fill-opacity="1.000000" fill-rule="nonzero"/>
</svg>
